<svg xmlns="http://www.w3.org/2000/svg" xmlns:xlink="http://www.w3.org/1999/xlink" id="fd98f290-bdbd-41ad-9185-4f92a0827468" width="887.37" height="759.32" data-name="Layer 1" viewBox="0 0 887.37 759.32"><defs><linearGradient id="ab48fab4-1a3a-4565-a1dd-23d89fd365cf" x1="506.4" x2="506.4" y1="439.52" y2="130.8" gradientTransform="translate(-16.76 -20.68)" gradientUnits="userSpaceOnUse"><stop offset="0" stop-color="gray" stop-opacity=".25"/><stop offset=".54" stop-color="gray" stop-opacity=".12"/><stop offset="1" stop-color="gray" stop-opacity=".1"/></linearGradient><linearGradient id="a68eda16-7e6e-484a-894e-52183ea866cc" x1="379.37" x2="379.37" y1="769.66" y2="327.66" gradientTransform="translate(59.33 9.94)" xlink:href="#ab48fab4-1a3a-4565-a1dd-23d89fd365cf"/><linearGradient id="b0d88756-d88b-4a02-be14-660768bdd804" x1="730.07" x2="730.07" y1="729.34" y2="659.46" gradientTransform="matrix(1, 0, 0, 1, 0, 0)" xlink:href="#ab48fab4-1a3a-4565-a1dd-23d89fd365cf"/><linearGradient id="e6f2f6b5-2b68-4848-b62f-d9b5850c3deb" x1="607.9" x2="607.9" y1="698.71" y2="670.12" gradientTransform="matrix(1, 0, 0, 1, 0, 0)" xlink:href="#ab48fab4-1a3a-4565-a1dd-23d89fd365cf"/><linearGradient id="b134ff68-cb39-4cfd-bf75-f7fb44484362" x1="854.95" x2="985.81" y1="374.84" y2="65.83" gradientTransform="translate(1157.56 -689.29) rotate(90)" xlink:href="#ab48fab4-1a3a-4565-a1dd-23d89fd365cf"/><linearGradient id="beb20c34-eb80-40f7-968f-b875364a860c" x1="485.61" x2="485.61" y1="585.05" y2="381.09" gradientTransform="translate(1234.58 -132.52) rotate(90)" xlink:href="#ab48fab4-1a3a-4565-a1dd-23d89fd365cf"/><linearGradient id="b1467891-0fbb-448a-b42d-01092438b165" x1="509.53" x2="509.53" y1="656.67" y2="453.47" gradientTransform="translate(209.29 -186.27)" xlink:href="#ab48fab4-1a3a-4565-a1dd-23d89fd365cf"/><linearGradient id="b7804cc0-88d6-4098-bbd9-f0ab3b030916" x1="502.64" x2="502.64" y1="656.89" y2="453.69" gradientTransform="translate(200.82 -175.06)" xlink:href="#ab48fab4-1a3a-4565-a1dd-23d89fd365cf"/><linearGradient id="f8d17f7c-6e49-4c6a-b441-936dbb48e9bd" x1="504.18" x2="504.18" y1="668.85" y2="465.65" gradientTransform="translate(190.32 -175.35)" xlink:href="#ab48fab4-1a3a-4565-a1dd-23d89fd365cf"/><linearGradient id="b0ab205f-3801-4118-a414-0807a30e3219" x1="695.2" x2="695.2" y1="610.94" y2="400.94" gradientTransform="matrix(1, 0, 0, 1, 0, 0)" xlink:href="#ab48fab4-1a3a-4565-a1dd-23d89fd365cf"/><linearGradient id="a0a0431d-7c47-4284-80c0-90cfee7a0ee6" x1="841.52" x2="841.52" y1="638.78" y2="513.78" gradientTransform="matrix(1, 0, 0, 1, 0, 0)" xlink:href="#ab48fab4-1a3a-4565-a1dd-23d89fd365cf"/></defs><title>Specs</title><rect width="213.27" height="308.72" x="383" y="110.12" fill="url(#ab48fab4-1a3a-4565-a1dd-23d89fd365cf)" rx="13.44" transform="translate(-202.62 44.27) rotate(-12.75)"/><rect width="207.97" height="302.01" x="384.68" y="114.08" fill="#444" rx="13.44" transform="translate(-202.78 44.07) rotate(-12.75)"/><rect width="364.19" height="442" x="256.6" y="337.6" fill="url(#a68eda16-7e6e-484a-894e-52183ea866cc)" transform="translate(-325.28 120.51) rotate(-20.67)"/><rect width="357.57" height="433.72" x="259.62" y="340.97" fill="#fff" transform="translate(-325.03 120.36) rotate(-20.67)"/><rect width="160.58" height="6.62" x="369.4" y="668.81" fill="#444" transform="translate(-364.65 131.7) rotate(-20.67)"/><rect width="263.21" height="6.62" x="380.12" y="687.86" fill="#444" transform="translate(-367.38 154.83) rotate(-20.67)"/><rect width="67.87" height="6.62" x="555.14" y="616.21" fill="#444" transform="translate(-337.1 177.53) rotate(-20.67)"/><rect width="67.87" height="6.62" x="379.39" y="703.76" fill="#444" transform="translate(-379.33 121.12) rotate(-20.67)"/><rect width="67.87" height="6.62" x="470.78" y="669.28" fill="#444" transform="translate(-361.27 151.16) rotate(-20.67)"/><rect width="67.87" height="6.62" x="562.16" y="634.8" fill="#444" transform="translate(-343.21 181.2) rotate(-20.67)"/><rect width="198.65" height="72.84" x="311.99" y="450.71" fill="#444" transform="translate(-301.81 106.24) rotate(-20.67)"/><path fill="url(#b0d88756-d88b-4a02-be14-660768bdd804)" d="M748.93,687.15a24.07,24.07,0,0,0,.36-4.11,23.59,23.59,0,1,0-38.07,18.61,23.18,23.18,0,0,0-.37,4.11,23.59,23.59,0,1,0,38.08-18.61Z" transform="translate(-156.32 -70.34)"/><circle cx="577.73" cy="634.39" r="21.44" fill="#444"/><circle cx="607.9" cy="684.42" r="14.3" fill="url(#e6f2f6b5-2b68-4848-b62f-d9b5850c3deb)"/><circle cx="607.9" cy="684.42" r="12.71" fill="#444"/><circle cx="569.78" cy="613.74" r="21.44" fill="#444"/><g opacity=".5"><rect width="3" height="17" x="668" fill="#47e6b1"/><rect width="3" height="17" x="824.32" y="70.34" fill="#47e6b1" transform="translate(748.34 -817.32) rotate(90)"/></g><g opacity=".5"><rect width="3" height="17" x="174" y="135" fill="#47e6b1"/><rect width="3" height="17" x="330.32" y="205.34" fill="#47e6b1" transform="translate(389.34 -188.32) rotate(90)"/></g><g opacity=".5"><rect width="3" height="17" x="401" y="717" fill="#47e6b1"/><rect width="3" height="17" x="557.32" y="787.34" fill="#47e6b1" transform="translate(1198.34 166.68) rotate(90)"/></g><path fill="#4d8af0" d="M946.21,659.29a3.67,3.67,0,0,1-2.05-4.44,1.89,1.89,0,0,0,.08-.4h0a1.84,1.84,0,0,0-3.31-1.23h0a1.9,1.9,0,0,0-.2.37,3.68,3.68,0,0,1-4.45,2,1.77,1.77,0,0,0-.4-.08h0a1.84,1.84,0,0,0-1.22,3.31h0a1.62,1.62,0,0,0,.36.21,3.68,3.68,0,0,1,2.05,4.44,1.15,1.15,0,0,0-.08.41h0a1.84,1.84,0,0,0,3.31,1.22h0a2.53,2.53,0,0,0,.2-.36,3.67,3.67,0,0,1,4.44-2,1.86,1.86,0,0,0,.41.08h0a1.84,1.84,0,0,0,1.22-3.31h0A2.6,2.6,0,0,0,946.21,659.29Z" opacity=".5" transform="translate(-156.32 -70.34)"/><path fill="#4d8af0" d="M870.21,760.29a3.67,3.67,0,0,1-2.05-4.44,1.89,1.89,0,0,0,.08-.4h0a1.84,1.84,0,0,0-3.31-1.23h0a1.9,1.9,0,0,0-.2.37,3.68,3.68,0,0,1-4.45,2,1.77,1.77,0,0,0-.4-.08h0a1.84,1.84,0,0,0-1.22,3.31h0a1.62,1.62,0,0,0,.36.21,3.68,3.68,0,0,1,2.05,4.44,1.15,1.15,0,0,0-.08.41h0a1.84,1.84,0,0,0,3.31,1.22h0a2.53,2.53,0,0,0,.2-.36,3.67,3.67,0,0,1,4.44-2,1.86,1.86,0,0,0,.41.08h0a1.84,1.84,0,0,0,1.22-3.31h0A2.6,2.6,0,0,0,870.21,760.29Z" opacity=".5" transform="translate(-156.32 -70.34)"/><path fill="#4d8af0" d="M253.21,712.29a3.67,3.67,0,0,1-2.05-4.44,1.89,1.89,0,0,0,.08-.4h0a1.84,1.84,0,0,0-3.31-1.23h0a1.9,1.9,0,0,0-.2.37,3.68,3.68,0,0,1-4.45,2,1.77,1.77,0,0,0-.4-.08h0a1.84,1.84,0,0,0-1.22,3.31h0a1.62,1.62,0,0,0,.36.21,3.68,3.68,0,0,1,2,4.44,1.15,1.15,0,0,0-.08.41h0a1.84,1.84,0,0,0,3.31,1.22h0a2.53,2.53,0,0,0,.2-.36,3.67,3.67,0,0,1,4.44-2,1.86,1.86,0,0,0,.41.08h0a1.84,1.84,0,0,0,1.22-3.31h0A2.6,2.6,0,0,0,253.21,712.29Z" opacity=".5" transform="translate(-156.32 -70.34)"/><circle cx="493" cy="56" r="6" fill="#f55f44" opacity=".5"/><circle cx="6" cy="73" r="6" fill="#4d8af0" opacity=".5"/><circle cx="843" cy="411" r="6" fill="#47e6b1" opacity=".5"/><circle cx="59" cy="301" r="6" fill="#f55f44" opacity=".5"/><g opacity=".5"><path fill="url(#b134ff68-cb39-4cfd-bf75-f7fb44484362)" d="M794.22,148.35h286a6.29,6.29,0,0,1,6.29,6.29V307.56a6.28,6.28,0,0,1-6.28,6.28h-286a6.29,6.29,0,0,1-6.29-6.29V154.64a6.29,6.29,0,0,1,6.29-6.29Z" transform="translate(390.28 1043.48) rotate(-79.98)"/></g><rect width="161.02" height="290.64" x="856.72" y="85.71" fill="#fff" rx="13.64" transform="translate(-101.83 -229.87) rotate(10.02)"/><path fill="#e0e0e0" d="M1001.08,102.14a13,13,0,0,1-14.6,8.69l-54.77-9.67A13.06,13.06,0,0,1,921,88l-29-5.13a6.11,6.11,0,0,0-7.08,5L839,347.63a6.12,6.12,0,0,0,4.95,7.09L982.5,379.2a6.11,6.11,0,0,0,7.09-5l45.9-259.81a6.11,6.11,0,0,0-5-7.09Z" transform="translate(-156.32 -70.34)"/><rect width="35.88" height="2.24" x="941.07" y="98.26" fill="#dbdbdb" rx="1.12" transform="translate(-127.66 -223.96) rotate(9.3)"/><circle cx="827.96" cy="32.96" r="1.35" fill="#dbdbdb"/><rect width="44" height="38" x="889.83" y="136.21" fill="#fff" transform="translate(-121.82 -208.07) rotate(8.8)"/><rect width="44" height="38" x="881.41" y="190.56" fill="#444" opacity=".3" transform="translate(-113.6 -206.15) rotate(8.8)"/><rect width="44" height="38" x="873" y="244.91" fill="#fff" transform="translate(-105.38 -204.22) rotate(8.8)"/><rect width="44" height="38" x="864.58" y="299.26" fill="#3ad29f" opacity=".3" transform="translate(-97.16 -202.29) rotate(8.8)"/><rect width="58" height="4" x="945.33" y="154.79" fill="#fff" transform="translate(-120.84 -217.62) rotate(8.8)"/><rect width="58" height="4" x="943.49" y="166.65" fill="#fff" transform="translate(-119.04 -217.2) rotate(8.8)"/><rect width="58" height="4" x="937.06" y="208.16" fill="#fff" transform="translate(-112.77 -215.73) rotate(8.8)"/><rect width="58" height="4" x="935.22" y="220.02" fill="#fff" transform="matrix(0.99, 0.15, -0.15, 0.99, -110.97, -215.31)"/><rect width="58" height="4" x="928.8" y="261.52" fill="#fff" transform="translate(-104.7 -213.83) rotate(8.8)"/><rect width="58" height="4" x="926.96" y="273.38" fill="#fff" transform="translate(-102.9 -213.41) rotate(8.8)"/><rect width="58" height="4" x="920.53" y="314.88" fill="#fff" transform="translate(-96.63 -211.94) rotate(8.8)"/><rect width="58" height="4" x="918.69" y="326.74" fill="#fff" transform="translate(-94.83 -211.52) rotate(8.8)"/><g opacity=".5"><rect width="203.96" height="62.36" x="649.53" y="321.92" fill="url(#beb20c34-eb80-40f7-968f-b875364a860c)" transform="translate(234.74 1030.77) rotate(-89.44)"/></g><rect width="59.29" height="201.23" x="722.38" y="252.48" fill="#e0e0e0" transform="translate(-152.81 -77.71) rotate(0.56)"/><rect width="41.91" height="41.91" x="731.88" y="255.72" fill="#4d8af0" transform="translate(-153.56 -77.72) rotate(0.56)"/><rect width="41.91" height="41.91" x="731.38" y="306.32" fill="#4d8af0" opacity=".5" transform="translate(-153.07 -77.71) rotate(0.56)"/><rect width="41.91" height="41.91" x="730.88" y="356.92" fill="#4d8af0" opacity=".3" transform="translate(-152.57 -77.71) rotate(0.56)"/><g opacity=".5"><rect width="62.36" height="203.2" x="687.64" y="267.19" fill="url(#b1467891-0fbb-448a-b42d-01092438b165)" transform="matrix(0.95, -0.31, 0.31, 0.95, -234.61, 166.83)"/></g><rect width="59.29" height="200.47" x="689.66" y="268.4" fill="#f5f5f5" transform="translate(-234.54 166.97) rotate(-17.78)"/><rect width="41.91" height="41.91" x="675.16" y="275.26" fill="#ff5252" transform="translate(-213.53 156.43) rotate(-17.78)"/><rect width="41.91" height="41.91" x="690.62" y="323.45" fill="#ff5252" opacity=".5" transform="translate(-227.5 163.45) rotate(-17.78)"/><rect width="41.91" height="41.91" x="706.07" y="371.63" fill="#ff5252" opacity=".3" transform="translate(-241.48 170.47) rotate(-17.78)"/><g opacity=".5"><rect width="62.36" height="203.2" x="672.28" y="278.64" fill="url(#b7804cc0-88d6-4098-bbd9-f0ab3b030916)" transform="translate(-252.36 325.05) rotate(-29.48)"/></g><rect width="59.29" height="200.47" x="674.26" y="279.75" fill="#f5f5f5" transform="translate(-252.18 325.24) rotate(-29.48)"/><rect width="41.91" height="41.91" x="645.54" y="292.82" fill="#69f0ae" transform="translate(-224.44 298.26) rotate(-29.48)"/><rect width="41.91" height="41.91" x="670.44" y="336.88" fill="#69f0ae" opacity=".5" transform="translate(-242.9 316.21) rotate(-29.48)"/><rect width="41.91" height="41.91" x="695.34" y="380.93" fill="#69f0ae" opacity=".3" transform="translate(-261.35 334.17) rotate(-29.48)"/><g opacity=".5"><rect width="62.36" height="203.2" x="663.32" y="290.3" fill="url(#f8d17f7c-6e49-4c6a-b441-936dbb48e9bd)" transform="translate(-252.89 422.13) rotate(-36.68)"/></g><rect width="59.29" height="200.47" x="665.26" y="291.36" fill="#fff" transform="translate(-252.63 422.32) rotate(-36.68)"/><rect width="41.91" height="41.91" x="628.52" y="309.65" fill="#444" transform="translate(-225.2 383.1) rotate(-36.68)"/><rect width="41.91" height="41.91" x="658.75" y="350.24" fill="#444" opacity=".5" transform="translate(-243.45 409.2) rotate(-36.68)"/><rect width="41.91" height="41.91" x="688.98" y="390.82" fill="#444" opacity=".3" transform="translate(-261.71 435.29) rotate(-36.68)"/><circle cx="695.2" cy="505.94" r="105" fill="url(#b0ab205f-3801-4118-a414-0807a30e3219)"/><circle cx="695.2" cy="505.94" r="100" fill="#f5f5f5"/><g opacity=".5"><path fill="url(#a0a0431d-7c47-4284-80c0-90cfee7a0ee6)" d="M854.28,513.81A62.5,62.5,0,0,0,790,569.63H772a3.64,3.64,0,0,0-3.64,3.64v6a3.64,3.64,0,0,0,3.64,3.64h18a62.5,62.5,0,1,0,64.27-69.11Z" transform="translate(-156.32 -70.34)"/></g><path fill="#fff" d="M853.51,517.56A58.75,58.75,0,0,0,793.1,570H775.68a2.91,2.91,0,0,0-2.91,2.91v6.67a2.91,2.91,0,0,0,2.91,2.92H793.1a58.75,58.75,0,1,0,60.41-65Z" transform="translate(-156.32 -70.34)"/><circle cx="695.2" cy="505.94" r="41.25" fill="#795548"/><path fill="#fff" d="M872.77,556.28s11.76,18.28,8.4,32.5C881.17,588.78,894.62,566.43,872.77,556.28Z" opacity=".2" transform="translate(-156.32 -70.34)"/><circle cx="721.45" cy="528.44" r="3.75" fill="#fff" opacity=".2"/></svg>